<svg fill="#000000" xmlns="http://www.w3.org/2000/svg" viewBox="0 0 50 50" width="50px" height="50px">
    <path d="M 19.746094 2.996094 C 12.074219 3.101563 5.03125 8.144531 2.742188 15.890625 C 0.859375 22.246094 2.664063 28.804688 6.894531 33.3125 L 2.371094 47 L 12.027344 47 L 14.542969 38.136719 C 14.660156 38.175781 14.773438 38.222656 14.890625 38.261719 C 15.515625 38.445313 16.140625 38.574219 16.765625 38.683594 L 19.394531 47 L 46.324219 47 L 48.425781 39 L 40.011719 39 L 44.480469 22 L 37.941406 22 C 38.402344 13.851563 33.273438 6.15625 25.109375 3.742188 C 23.320313 3.210938 21.515625 2.972656 19.746094 2.996094 Z M 19.78125 5 C 21.351563 4.976563 22.953125 5.1875 24.542969 5.65625 C 31.824219 7.8125 36.394531 14.722656 35.9375 22 L 33.933594 22 C 34.023438 20.777344 33.96875 19.566406 33.742188 18.390625 C 32.566406 18.523438 30.832031 18.621094 28.703125 18.496094 L 27.703125 22.226563 L 26.078125 27.4375 C 24.957031 29.804688 23.898438 31.585938 23.082031 32.617188 L 22.34375 30.105469 C 22.644531 29.660156 22.945313 29.191406 23.234375 28.683594 C 22.757813 28.445313 22.25 28.21875 21.71875 27.996094 L 21.003906 25.578125 C 22.136719 25.992188 23.210938 26.433594 24.164063 26.902344 C 24.632813 25.902344 25.0625 24.816406 25.445313 23.65625 L 23.039063 22.941406 L 13.984375 20.265625 C 13.832031 20.855469 13.707031 21.429688 13.59375 22 L 11.5625 22 C 11.703125 21.242188 11.863281 20.476563 12.066406 19.695313 L 6.34375 18 C 5.921875 19.894531 5.910156 21.796875 6.257813 23.609375 C 7.210938 23.503906 8.550781 23.425781 10.152344 23.46875 L 9.484375 25.480469 C 8.4375 25.476563 7.492188 25.507813 6.789063 25.574219 C 7.183594 26.710938 7.726563 27.785156 8.390625 28.785156 L 7.625 31.105469 C 4.398438 27.144531 3.101563 21.714844 4.65625 16.457031 C 6.691406 9.585938 12.960938 5.097656 19.78125 5 Z M 19.386719 7.027344 C 18.589844 7.0625 17.804688 7.15625 17.035156 7.320313 C 17.34375 7.5625 17.71875 7.835938 18.148438 8.125 C 18.554688 7.71875 18.96875 7.34375 19.386719 7.027344 Z M 22.949219 7.519531 C 22.035156 7.644531 21 8.21875 19.949219 9.179688 C 20.609375 9.519531 21.355469 9.847656 22.171875 10.140625 Z M 14.785156 8.023438 C 13.574219 8.511719 12.4375 9.167969 11.40625 9.972656 C 12.238281 10.628906 13.441406 11.492188 14.992188 12.378906 C 15.5625 11.371094 16.167969 10.453125 16.808594 9.640625 C 15.808594 8.953125 15.128906 8.351563 14.785156 8.023438 Z M 24.863281 8.085938 L 24.089844 10.707031 C 24.933594 10.90625 25.734375 11.035156 26.480469 11.109375 C 26.117188 9.734375 25.5625 8.691406 24.863281 8.085938 Z M 28.121094 9.613281 C 28.296875 10.105469 28.441406 10.644531 28.5625 11.207031 C 29.082031 11.199219 29.542969 11.175781 29.929688 11.140625 C 29.378906 10.582031 28.769531 10.074219 28.121094 9.613281 Z M 18.53125 10.699219 C 17.925781 11.453125 17.328125 12.328125 16.765625 13.316406 C 17.949219 13.898438 19.285156 14.457031 20.75 14.941406 L 21.605469 12.0625 C 20.441406 11.65625 19.417969 11.179688 18.53125 10.699219 Z M 9.890625 11.332031 C 8.613281 12.664063 7.589844 14.265625 6.90625 16.082031 L 12.636719 17.777344 C 13.058594 16.5 13.53125 15.285156 14.0625 14.160156 C 12.207031 13.109375 10.808594 12.078125 9.890625 11.332031 Z M 23.519531 12.628906 L 22.667969 15.511719 C 24.164063 15.902344 25.585938 16.160156 26.894531 16.316406 C 26.960938 15.179688 26.9375 14.121094 26.839844 13.15625 C 25.832031 13.082031 24.714844 12.921875 23.519531 12.628906 Z M 31.4375 12.953125 C 30.96875 13.039063 30.074219 13.175781 28.863281 13.207031 C 28.953125 14.234375 28.960938 15.335938 28.890625 16.492188 C 30.675781 16.59375 32.15625 16.527344 33.214844 16.425781 C 32.78125 15.191406 32.1875 14.019531 31.4375 12.953125 Z M 15.832031 15.097656 C 15.367188 16.097656 14.9375 17.183594 14.550781 18.34375 L 19.324219 19.757813 L 20.183594 16.859375 C 18.578125 16.332031 17.121094 15.730469 15.832031 15.097656 Z M 22.101563 17.425781 L 21.242188 20.324219 L 26.015625 21.734375 C 26.324219 20.554688 26.554688 19.40625 26.703125 18.316406 C 25.285156 18.144531 23.734375 17.859375 22.101563 17.425781 Z M 12.082031 24 L 18.453125 24 L 23.707031 41.792969 L 24.6875 38.640625 L 29.242188 24 L 34.066406 24 L 28.046875 45 L 20.859375 45 L 15.40625 27.757813 L 10.515625 45 L 5.140625 45 Z M 36.148438 24 L 41.886719 24 L 37.417969 41 L 45.832031 41 L 44.78125 45 L 30.128906 45 Z"/>
</svg>